# Blender v2.62 (sub 0) OBJ File: ''
# www.blender.org
o Cube
v 1.621475 0.751957 -2.058985
v 0.058860 2.465518 1.654575
v -3.594482 1.096932 3.170309
v -1.941140 2.465518 -0.345425
v 0.058860 4.465518 -0.345424
v 0.794039 5.200698 2.389756
v -1.941141 4.465518 1.654575
v -1.941140 4.465518 -0.345425
vn -0.032991 -0.998911 0.032991
vn -0.132030 0.982413 -0.132030
vn 0.991462 0.092203 0.092203
vn 0.091146 0.091146 0.991657
vn -0.946877 0.227402 -0.227403
vn -0.223436 0.223437 -0.948764
s off
f 1//1 2//1 3//1
f 1//1 3//1 4//1
f 5//2 8//2 7//2
f 5//2 7//2 6//2
f 1//3 5//3 6//3
f 1//3 6//3 2//3
f 2//4 6//4 7//4
f 2//4 7//4 3//4
f 3//5 7//5 8//5
f 3//5 8//5 4//5
f 5//6 1//6 4//6
f 5//6 4//6 8//6
